HIERARCHY
ROOT Hips
{
	OFFSET 0.00000 0.00000 0.00000
	CHANNELS 6 Xposition Yposition Zposition Zrotation Yrotation Xrotation 
	JOINT LHipJoint
	{
		OFFSET 0 0 0
		CHANNELS 3 Zrotation Yrotation Xrotation
		JOINT LeftHip
		{
			OFFSET 1.54859 -1.61379 0.86856
			CHANNELS 3 Zrotation Yrotation Xrotation
			JOINT LeftKnee
			{
				OFFSET 2.25087 -6.18423 0.00000
				CHANNELS 3 Zrotation Yrotation Xrotation
				JOINT LeftAnkle
				{
					OFFSET 2.40328 -6.60297 0.00000
					CHANNELS 3 Zrotation Yrotation Xrotation
					JOINT LeftToe
					{
						OFFSET 0.17435 -0.47901 2.02453
						CHANNELS 3 Zrotation Yrotation Xrotation
						End Site
						{
							OFFSET 0.00000 -0.00000 1.04844
						}
					}
				}
			}
		}
	}
	JOINT RHipJoint
	{
		OFFSET 0 0 0
		CHANNELS 3 Zrotation Yrotation Xrotation
		JOINT RightHip
		{
			OFFSET -1.54669 -1.61379 0.86856
			CHANNELS 3 Zrotation Yrotation Xrotation
			JOINT RightKnee
			{
				OFFSET -2.28132 -6.26789 0.00000
				CHANNELS 3 Zrotation Yrotation Xrotation
				JOINT RightAnkle
				{
					OFFSET -2.51636 -6.91365 0.00000
					CHANNELS 3 Zrotation Yrotation Xrotation
					JOINT RightToe
					{
						OFFSET -0.15124 -0.41552 2.21090
						CHANNELS 3 Zrotation Yrotation Xrotation
						End Site
						{
							OFFSET -0.00000 -0.00000 1.13399
						}
					}
				}
			}
		}
	}
	JOINT lowerback
	{
		OFFSET 0 0 0
		CHANNELS 3 Zrotation Yrotation Xrotation
		JOINT Chest
		{
			OFFSET -0.04287 2.26161 -0.25690
			CHANNELS 3 Zrotation Yrotation Xrotation
			JOINT Chest2
			{
				OFFSET 0.02248 2.28395 -0.10140
				CHANNELS 3 Zrotation Yrotation Xrotation
				JOINT lowerneck
				{
					OFFSET 0 0 0
					CHANNELS 3 Zrotation Yrotation Xrotation
					JOINT Neck
					{
						OFFSET -0.11644 1.38496 0.11345
						CHANNELS 3 Zrotation Yrotation Xrotation
						JOINT Head
						{
							OFFSET 0.29383 1.36600 0.06642
							CHANNELS 3 Zrotation Yrotation Xrotation
							End Site
							{
								OFFSET 0.11075 1.41395 -0.00294
							}
						}
					}
				}
				JOINT LeftCollar
				{
					OFFSET 0 0 0
					CHANNELS 3 Zrotation Yrotation Xrotation
					JOINT LeftShoulder
					{
						OFFSET 3.51628 0.59542 -0.30346
CHANNELS 3 Zrotation Xrotation Yrotation
						JOINT LeftElbow
						{
OFFSET 0 -4.764050 0.000000
CHANNELS 3 Zrotation Xrotation Yrotation
							JOINT LeftWrist
							{
OFFSET 0 -3.137590 -0.000000
CHANNELS 3 Zrotation Xrotation Yrotation
								JOINT lhand
								{
									OFFSET 0 0 0
CHANNELS 3 Zrotation Xrotation Yrotation
									JOINT LFingers
									{
OFFSET 0 -0.732260 -0.000000
CHANNELS 3 Zrotation Xrotation Yrotation
										End Site
										{
OFFSET 0 -0.590370 -0.000000
										}
									}
								}
								JOINT LThumb
								{
OFFSET 0 0.000000 0.000000
CHANNELS 3 Zrotation Xrotation Yrotation
									End Site
									{
OFFSET 0 -0.599380 0.599380
									}
								}
							}
						}
					}
				}
				JOINT RightCollar
				{
					OFFSET 0 0 0
					CHANNELS 3 Zrotation Yrotation Xrotation
					JOINT RightShoulder
					{
						OFFSET -3.30990 0.84213 -0.36430
CHANNELS 3 Zrotation Xrotation Yrotation
						JOINT RightElbow
						{
OFFSET 0 -5.101610 -0.000000
CHANNELS 3 Zrotation Xrotation Yrotation
							JOINT RightWrist
							{
OFFSET 0 -3.232670 -0.000000
CHANNELS 3 Zrotation Xrotation Yrotation
								JOINT rhand
								{
									OFFSET 0 0 0
CHANNELS 3 Zrotation Xrotation Yrotation
									JOINT RFingers
									{
OFFSET 0 -0.702000 -0.000000
CHANNELS 3 Zrotation Xrotation Yrotation
										End Site
										{
OFFSET 0 -0.565970 -0.000000
										}
									}
								}
								JOINT RThumb
								{
OFFSET 0 0.000000 0.000000
CHANNELS 3 Zrotation Xrotation Yrotation
									End Site
									{
OFFSET 0 -0.574610 0.574610
									}
								}
							}
						}
					}
				}
			}
		}
	}
}
MOTION
Frames: 8
Frame Time: .0083333
30.7475 15.5243 0.7034 173.0460 -71.0702 -175.4400 0.0000 0.0000 0.0000 -20.2055 0.3272 -6.0194 3.1449 10.9259 32.0305 1.7023 9.8764 -29.9147 0.2240 -3.0464 -8.4079 0.0000 0.0000 0.0000 15.4620 6.9545 -8.7602 -3.8531 -11.9623 35.5988 -0.9883 -13.6444 -28.1672 -0.6035 4.9728 -13.8309 -5.5986 0.0289 2.2236 0.7642 -0.1716 6.9213 3.9184 -0.5252 5.9846 -16.8561 -7.2220 5.6821 26.7233 -9.2063 -13.9489 11.8115 -5.6174 -2.6719 0.0000 -0.0000 0.0000 -6.7797 -6.3991 -16.7068 10.1817 -17.0232 1.5277 16.8947 14.9396 -23.235 0.0 0.0 0.0 -7.1250 0.0 0.0 -12.8017 53.6895 2.7705 0.0000 -0.0000 0.0000 1.5942 -4.7889 13.7087 -16.4074 -26.07 -3.8233 -19.1725 0.7024 -26.6237 0.0 0.0 0.0 7.1250 0.0 -0.0 6.4713 2.1793 6.2611
30.7487 15.5244 0.7010 172.8280 -71.1459 -175.2160 0.0000 0.0000 0.0000 -20.2409 0.3749 -6.0715 3.1313 10.9046 31.9590 1.6504 10.0164 -29.6773 0.2630 -3.2992 -9.1130 0.0000 0.0000 0.0000 15.3782 6.8209 -8.8620 -3.8667 -11.9809 35.6646 -0.9385 -13.8285 -27.9864 -0.6944 5.3269 -14.8434 -5.6784 -0.0054 2.2938 0.7449 -0.2195 6.8892 3.9418 -0.5496 5.9167 -16.6996 -7.1640 5.5692 26.4684 -9.1407 -13.6644 11.6687 -5.5574 -2.6147 0.0000 -0.0000 0.0000 -6.7768 -6.5066 -16.8795 10.0594 -16.8324 1.4921 17.4927 14.6702 -22.4984 0.0 0.0 0.0 -7.1250 0.0 0.0 -11.8863 53.0631 2.3845 0.0000 -0.0000 0.0000 1.6018 -4.7263 13.7385 -16.3850 -26.0399 -3.8134 -19.1752 0.6282 -26.7475 0.0 0.0 0.0 7.1250 0.0 -0.0 6.4821 2.0523 6.2866
30.7522 15.5234 0.6987 172.8250 -71.2421 -175.1950 0.0000 0.0000 0.0000 -20.1857 0.3561 -6.1302 3.1313 10.9046 31.9587 1.6477 9.8874 -29.5672 0.2442 -3.1802 -8.7808 0.0000 0.0000 0.0000 15.3946 6.7361 -8.9247 -3.8714 -11.9873 35.6870 -0.8737 -14.1111 -27.7931 -0.7858 5.6590 -15.7983 -5.7122 -0.0416 2.3939 0.7539 -0.2744 6.8623 3.9692 -0.5759 5.8376 -16.4269 -7.1335 5.3814 26.0874 -9.1030 -13.3533 11.4517 -5.5037 -2.5452 0.0000 -0.0000 0.0000 -6.7927 -6.6179 -17.2503 10.0082 -16.7524 1.4773 18.2953 14.0894 -21.9736 0.0 0.0 0.0 -7.1250 0.0 0.0 -10.8736 52.679 2.0746 0.0000 -0.0000 0.0000 1.6138 -4.654 13.7659 -16.3964 -26.0552 -3.8184 -19.0547 0.6796 -26.7523 0.0 0.0 0.0 7.1250 0.0 -0.0 6.5548 2.0682 6.3562
30.7540 15.5228 0.6961 172.9250 -71.2840 -175.2790 0.0000 0.0000 0.0000 -20.1163 0.3977 -6.1391 3.1264 10.8969 31.9330 1.6566 9.7462 -29.5244 0.2335 -3.1101 -8.5856 0.0000 0.0000 0.0000 15.4328 6.6671 -8.9790 -3.8807 -11.9999 35.7318 -0.8869 -14.0368 -27.8157 -0.7669 5.5922 -15.6057 -5.9140 -0.2140 2.4016 0.9989 -0.5177 6.9157 4.3335 -0.7220 5.9278 -16.8694 -6.9044 4.9149 25.7720 -8.8221 -12.9279 11.3808 -5.2789 -2.4036 -0.0000 0.0000 0.0000 -7.3192 -6.8411 -16.7065 10.0455 -16.8108 1.4881 18.1157 14.1657 -22.0459 0.0 0.0 0.0 -7.1250 0.0 0.0 -11.0810 52.7199 2.1261 -0.0000 0.0000 0.0000 1.1224 -4.7576 14.3188 -16.3729 -26.0237 -3.8081 -18.9983 0.7289 -26.5444 0.0 0.0 0.0 7.1250 0.0 -0.0 6.5680 2.2901 6.3426
30.7546 15.5227 0.6923 172.9030 -71.2954 -175.2300 0.0000 0.0000 0.0000 -20.1010 0.4564 -6.1593 3.1201 10.8869 31.8995 1.6488 9.7488 -29.4756 0.2512 -3.2250 -8.9058 0.0000 0.0000 0.0000 15.4174 6.5984 -9.0619 -3.8934 -12.0172 35.7929 -0.9090 -13.9017 -27.8434 -0.7490 5.5280 -15.4208 -5.9843 -0.2672 2.3333 1.0569 -0.5889 6.9816 4.4312 -0.7704 6.0495 -16.8712 -6.7594 4.5839 25.4909 -8.6163 -12.6906 11.2582 -5.1326 -2.3436 0.0000 -0.0000 0.0000 -7.4637 -7.0453 -16.3452 10.0335 -16.792 1.4846 17.1527 14.5797 -22.5335 0.0 0.0 0.0 -7.1250 0.0 0.0 -12.2395 53.0369 2.4492 0.0000 -0.0000 0.0000 1.0249 -4.9195 14.3788 -16.3024 -25.929 -3.7772 -19.1302 0.8212 -26.4178 0.0 0.0 0.0 7.1250 0.0 -0.0 6.4763 2.3971 6.2402
30.7559 15.5208 0.6883 172.4370 -71.2870 -174.7650 0.0000 0.0000 0.0000 -20.2443 0.4350 -6.1577 3.1153 10.8794 31.8744 1.6694 9.6422 -29.5353 0.2241 -3.0473 -8.4105 0.0000 0.0000 0.0000 15.2284 6.4595 -9.1676 -3.9052 -12.0332 35.8494 -0.9566 -13.6477 -27.9426 -0.7212 5.4266 -15.1294 -6.1569 -0.2516 2.2946 1.0207 -0.5645 7.0591 4.4903 -0.7742 6.1559 -16.7115 -6.6803 4.2345 25.3428 -8.4724 -12.5850 11.1578 -5.0395 -2.3021 0.0000 -0.0000 0.0000 -7.4661 -7.2255 -16.4376 10.0441 -16.8085 1.4877 16.6717 14.6825 -22.8342 0.0 0.0 0.0 -7.1250 0.0 0.0 -12.8476 53.2498 2.6415 0.0000 -0.0000 0.0000 1.0641 -5.1473 14.2366 -16.2068 -25.8002 -3.7355 -19.239 0.9245 -26.3383 0.0 0.0 0.0 7.1250 0.0 -0.0 6.4030 2.4597 6.1614
30.7569 15.5172 0.6851 172.1050 -71.2710 -174.4660 0.0000 0.0000 0.0000 -20.3396 0.4404 -6.1453 3.1108 10.8724 31.8506 1.6760 9.5958 -29.5457 0.2064 -2.9251 -8.0702 0.0000 0.0000 0.0000 15.0918 6.3348 -9.2191 -3.9146 -12.0458 35.8943 -0.9949 -13.4462 -28.0261 -0.7029 5.3587 -14.9345 -6.1916 -0.2007 2.2482 0.9234 -0.4935 7.1985 4.4083 -0.7504 6.3228 -16.5708 -6.5564 3.9513 25.3786 -8.2513 -12.6537 11.1449 -4.9301 -2.3249 0.0000 0.0000 0.0000 -7.3494 -7.4419 -16.8446 10.1133 -16.9167 1.5078 16.7665 14.5678 -22.794 0.0 0.0 0.0 -7.1250 0.0 0.0 -12.7358 53.227 2.6107 0.0000 0.0000 0.0000 1.2057 -5.3992 14.0991 -16.1623 -25.7403 -3.7162 -19.1944 1.0284 -26.1431 0.0 0.0 0.0 7.1250 0.0 -0.0 6.4107 2.667 6.1445
30.7554 15.5190 0.6819 172.2920 -71.2810 -174.6090 0.0000 0.0000 0.0000 -20.2322 0.5980 -6.2480 3.1067 10.8658 31.8287 1.6380 9.6571 -29.3387 0.2442 -3.1800 -8.7803 0.0000 0.0000 0.0000 15.1517 6.2781 -9.3000 -3.9208 -12.0542 35.9240 -0.9451 -13.6132 -27.8255 -0.7787 5.6340 -15.7262 -5.9516 -0.1707 2.0757 0.7959 -0.4441 7.3627 4.1380 -0.7232 6.5846 -16.4703 -6.3496 3.6297 25.4480 -7.9277 -12.5965 11.1486 -4.7641 -2.3243 0.0000 -0.0000 0.0000 -7.1032 -7.6863 -17.3502 10.2079 -17.0642 1.5354 16.7458 14.2319 -22.7476 0.0 0.0 0.0 -7.1250 0.0 0.0 -12.7363 53.177 2.5952 0.0000 -0.0000 0.0000 1.4847 -5.682 13.8875 -16.1230 -25.6872 -3.6991 -19.1396 1.1747 -26.0534 0.0 0.0 0.0 7.1250 0.0 -0.0 6.4350 2.7682 6.1562
